<svg width="983" height="690" viewBox="0 0 983 690" fill="none" xmlns="http://www.w3.org/2000/svg">
<path d="M427.762 0.734612C404.296 3.00128 376.696 9.13461 359.096 15.9346C328.696 27.5346 302.829 44.7346 277.629 69.8013C241.496 105.801 221.362 145.935 213.762 197.268C210.829 217.001 211.629 250.201 215.629 269.801C229.629 338.201 275.362 396.735 340.562 429.535C354.162 436.335 379.229 444.468 399.096 448.601C424.562 453.668 460.562 454.601 483.362 450.601C514.962 445.135 545.362 433.935 572.162 417.935L584.962 410.335L590.962 413.801C594.296 415.801 597.896 417.135 598.962 416.868C600.029 416.601 609.362 408.468 619.629 398.735L638.296 381.001L635.762 376.735C630.962 368.201 631.096 367.668 640.562 353.668C666.429 315.535 679.762 272.335 679.762 227.135C679.629 139.001 626.296 58.3346 542.829 20.3346C510.829 5.66795 461.896 -2.59872 427.762 0.734612ZM474.429 31.8013C504.029 35.6679 535.496 47.8013 561.762 65.5346C577.496 76.2013 603.629 102.335 613.362 117.135C636.162 151.668 645.896 180.735 647.362 219.268C648.429 247.401 644.429 271.801 634.562 297.401C620.696 333.135 594.162 365.001 558.562 389.001C548.296 395.935 524.162 407.668 510.429 412.201C488.429 419.668 474.562 421.668 445.762 421.668C422.029 421.668 417.362 421.268 403.096 418.201C343.629 405.401 289.762 364.735 263.762 313.135C249.496 284.735 243.762 259.935 243.762 226.601C243.762 187.001 253.762 153.401 275.362 120.468C306.162 73.8013 356.829 41.2679 412.429 32.4679C425.362 30.4679 460.696 30.0679 474.429 31.8013Z" fill="#00744D"/>
<path d="M426.429 114.735C285.229 174.735 281.229 176.468 279.762 179.668C277.229 185.135 281.362 188.601 299.762 196.335C308.962 200.201 318.429 204.335 320.829 205.668L325.096 207.935V232.468V257.135L320.829 261.001C316.829 264.601 316.562 265.135 316.829 274.468C317.096 283.268 313.896 315.801 312.296 321.401C311.096 325.268 318.962 324.601 320.696 320.735C322.162 317.801 322.162 317.801 323.096 321.535C324.029 325.135 324.429 325.268 330.829 324.868C337.362 324.468 337.629 324.335 338.829 319.801L340.162 315.135L341.496 319.401C342.562 323.135 346.696 325.935 349.096 324.468C349.496 324.201 348.829 313.268 347.496 300.201C346.162 287.135 345.496 274.868 345.896 273.001C346.829 268.201 343.362 260.335 339.896 259.135C337.229 258.335 337.096 257.535 337.096 230.601V202.868L348.162 198.201C354.162 195.535 375.362 186.601 395.096 178.468C414.962 170.201 433.362 162.335 436.029 161.001C444.696 156.601 451.762 158.201 451.762 164.601C451.762 168.601 450.562 169.401 431.096 177.135C421.629 180.868 407.496 186.735 399.762 190.201C392.029 193.535 378.029 199.401 368.429 203.268C351.762 209.935 351.096 210.468 350.696 214.335C350.296 218.068 350.829 218.735 355.362 220.601C358.162 221.801 372.429 228.068 387.096 234.468C450.296 262.201 446.829 261.268 463.496 253.935C494.296 240.068 516.696 230.201 542.429 219.135C596.829 195.668 611.096 189.001 612.829 186.868C615.096 183.668 614.829 180.201 612.029 177.401C610.696 176.068 594.696 168.735 576.296 161.268C558.029 153.668 538.562 145.535 533.096 143.001C500.829 128.735 452.029 108.735 447.896 108.201C444.296 107.801 438.962 109.401 426.429 114.735Z" fill="#00744D"/>
<path d="M544.429 233.001C536.429 236.601 517.229 244.868 501.762 251.401C486.429 258.068 469.096 265.668 463.362 268.335C450.562 274.201 445.229 274.335 433.362 269.268C428.429 267.135 414.562 261.135 402.429 255.801C390.296 250.468 375.762 244.201 369.896 241.668L359.496 237.135L360.029 262.601L360.562 288.068L364.696 291.801C369.229 295.935 379.496 302.201 398.029 312.068C417.896 322.735 446.296 327.001 476.162 323.935C501.362 321.401 502.562 320.868 547.762 295.935C553.229 292.868 558.562 289.401 559.496 288.201C561.229 285.668 561.896 226.335 560.162 226.601C559.496 226.735 552.562 229.535 544.429 233.001Z" fill="#00744D"/>
<path d="M643.096 382.735C634.562 387.535 598.962 423.001 598.029 427.535C596.562 434.468 599.896 441.401 608.562 449.801C662.962 503.135 699.496 538.335 702.962 540.868C711.496 546.868 729.496 547.135 739.096 541.135C744.829 537.535 764.296 517.135 767.229 511.668C770.562 505.268 770.429 492.601 767.096 486.201C765.629 483.535 752.162 469.535 737.096 455.135C668.029 388.735 663.096 384.068 657.629 382.601C651.096 380.735 646.429 380.868 643.096 382.735Z" fill="#00744D"/>
<path d="M92.6667 546.8C82.2667 552.667 86 568 97.8667 568C112.533 568 114.4 548 99.8667 545.867C97.3333 545.6 94.1333 546 92.6667 546.8Z" fill="#00744D"/>
<path d="M0.933333 548.933C0.4 549.333 0 553.6 0 558.267V566.667H14.6667H29.3333V612V657.333H40H50.6667V612V566.8L65.0667 566.4L79.3333 566V557.333V548.667L40.5333 548.267C19.2 548.133 1.46667 548.4 0.933333 548.933Z" fill="#00744D"/>
<path d="M242.667 557.333V566.667H256.667H270.667V612V657.333H282H293.333V612V566.667H307.333H321.333V557.333V548H282H242.667V557.333Z" fill="#00744D"/>
<path d="M159.6 584.533C154.133 586.533 150.933 588.667 148.267 592.267C145.6 596 144 595.067 144 590V585.333H134.667H125.333V621.333V657.333H135.333H145.333V635.2C145.333 617.467 145.733 612.133 147.467 608.533C149.867 603.467 155.2 600 160.533 600C170.667 600 172 603.733 172 633.333V657.333H182H192V635.333C192 618.4 192.4 612.267 194 609.333C198.533 600.667 208.4 597.333 214.8 602.533C218 605.067 218 605.6 218.4 631.2L218.933 657.333H228.8H238.667V630.133C238.667 600.667 238 596.4 231.6 589.733C222.4 579.867 202.4 581.6 193.333 592.933C190.933 595.867 190.133 596.267 189.6 594.667C188.267 590.8 181.733 585.6 176.533 584.133C169.867 582.267 165.867 582.4 159.6 584.533Z" fill="#00744D"/>
<path d="M352.267 585.333C348.667 586.933 345.6 589.733 343.6 592.933L340.667 598L340.267 591.6L339.867 585.333H330.133H320.4L320.8 620.933L321.067 656.667L331.2 657.067L341.467 657.467L341.2 636.267C341.067 612.4 342.133 608.667 349.733 603.867C352.8 601.867 355.6 601.333 359.733 601.733L365.467 602.4L365.067 592.8C364.667 583.733 364.533 583.333 361.333 582.933C359.467 582.8 355.467 583.867 352.267 585.333Z" fill="#00744D"/>
<path d="M482.4 584.4C469.6 588.133 461.467 596.8 457.867 610.8C452.933 630.133 461.2 648.933 477.6 656C483.467 658.533 486.267 658.933 496 658.4C506.267 657.867 508.4 657.333 514.133 653.6C526 646.133 530.667 636.667 530.667 620.667C530.667 604.533 522.667 591.733 508.933 586C501.867 583.067 489.733 582.4 482.4 584.4ZM501.333 600.4C506.533 602.933 509.333 610 509.333 620.4C509.333 625.333 508.533 631.333 507.467 633.867C502.133 646.667 486.533 647.333 480.667 635.067C477.733 628.933 477.333 616.133 479.867 608.933C482.8 600.267 493.067 596.267 501.333 600.4Z" fill="#00744D"/>
<path d="M578 584.667C575.067 585.867 570.8 588.667 568.4 590.933L564 595.2V590.267V585.333H554H544V621.333V657.333H554H564V636.133C564 614.133 564.8 609.467 569.6 604.4C575.733 597.867 588 599.467 590.533 606.933C591.333 609.333 592 621.333 592 634.133V657.333H602.133H612.133L611.733 628.267C611.333 595.733 610.4 591.867 601.867 586.533C596 582.933 584.933 582.133 578 584.667Z" fill="#00744D"/>
<path d="M646.133 584.667C630.133 590.4 621.067 614.133 627.067 634.8C633.333 655.867 654.533 663.733 672.4 651.6L676 649.2V654.667C676 662.267 672.933 668.8 668.133 671.2C663.067 673.867 648 673.867 640.667 671.333C637.733 670.267 635.2 669.333 635.067 669.333C634.933 669.333 634.133 672.667 633.333 676.8C631.467 685.467 631.733 685.867 641.733 688C652.267 690.267 667.2 689.6 675.6 686.667C684.667 683.467 690 678.8 693.867 670.667C696.533 665.067 696.667 662.133 697.067 624.933L697.6 585.333H687.467C678.267 585.333 677.333 585.6 677.333 588C677.333 591.2 676.267 591.333 673.2 588.533C667.2 583.2 655.2 581.467 646.133 584.667ZM672.667 601.867C675.867 604 676 604.533 676 618.8C676 633.333 676 633.6 672.133 637.467C668.933 640.533 667.067 641.333 662.4 641.333C659.2 641.333 655.2 640.4 653.467 639.2C643.867 632.4 644.667 606.133 654.533 600.667C658.8 598.133 668 598.8 672.667 601.867Z" fill="#00744D"/>
<path d="M769.333 584.133C760.533 586.667 753.333 589.733 753.333 590.8C753.333 591.467 754.4 594.133 755.6 596.933C756.933 599.733 758 602.133 758 602.267C758 602.4 760.533 601.733 763.333 600.667C766.267 599.6 772.4 598.8 776.8 598.667C787.067 598.667 792 601.867 792 608.533V612.8L779.467 614.133C757.467 616.533 748.667 623.2 748.667 637.333C748.8 650 756 657.467 769.067 658.4C777.2 658.933 785.333 656.133 789.2 651.467C791.867 648.267 793.333 648.933 793.333 653.333V657.333H802.8H812.133L811.733 629.6C811.333 603.067 811.2 601.733 808 596.133C803.6 588.133 795.6 584.133 783.2 583.333C778.133 582.933 771.867 583.333 769.333 584.133ZM792 631.067C791.867 645.867 771.867 651.067 768.667 637.2C768 634.667 768.667 632.667 771.067 629.867C773.867 626.667 775.733 625.867 782.133 625.333C786.533 624.933 790.4 624.8 791.067 625.067C791.6 625.333 792 628 792 631.067Z" fill="#00744D"/>
<path d="M864.667 583.333C864 583.6 861.733 584.133 859.733 584.533C857.733 585.067 854 587.2 851.333 589.467L846.667 593.6V589.467V585.333H837.067H827.333L827.733 636.667L828 688H838H848V670C848 660.133 848.267 652 848.533 652C848.8 652 851.867 653.6 855.2 655.467C860.533 658.533 862.667 658.933 870 658.4C880.933 657.733 888.4 652.933 893.733 642.933C900.667 630.267 901.067 611.2 894.667 598.667C889.067 587.733 874.267 580.133 864.667 583.333ZM868.8 600.667C874.8 603.067 877.333 609.067 877.333 620.667C877.333 630.933 875.067 637.067 870 641.067C865.2 644.8 858.933 644.8 853.2 640.933L848.667 637.867L848.267 624.267C847.867 608.667 849.6 603.6 856.4 600.667C861.867 598.267 863.067 598.267 868.8 600.667Z" fill="#00744D"/>
<path d="M950 583.2C949.333 583.6 947.067 584.133 945.067 584.533C943.067 585.067 939.333 587.2 936.8 589.467L932.133 593.467L931.733 589.733C931.333 586.133 931.2 586 921.733 585.6L912 585.2V636.667V688H922.4H932.667L932.267 670C932 660.133 932.267 652 932.933 652C933.467 652 936.4 653.6 939.333 655.333C949.2 661.467 964.933 659.2 972.933 650.4C979.2 643.467 982 635.867 982.533 623.6C983.2 604.133 978.533 592 968 586.667C962.933 584.133 952.8 582.133 950 583.2ZM956.933 602.933C958.667 604.8 960.533 608.933 961.333 613.2C964.667 631.2 956.267 645.867 943.867 643.467C934.667 641.6 932.133 636.533 932 619.2C932 610.133 935.333 603.467 941.333 600.267C945.867 598 953.2 599.2 956.933 602.933Z" fill="#00744D"/>
<path d="M88 621.333V657.333H98H108V621.333V585.333H98H88V621.333Z" fill="#00744D"/>
<path d="M374.933 612.933C375.6 645.6 376.667 649.867 386 655.333C396.4 661.467 411.067 659.6 420.4 650.933L424 647.467V652.4V657.333H433.2H442.4L443.067 642.933C444 625.067 444.133 590.8 443.2 587.6C442.533 585.733 440.8 585.333 432.533 585.333H422.533L422.667 608C422.933 632.8 422.133 636.133 414.667 640.533C408.133 644.267 400.267 642.4 397.467 636.4C396.533 634.4 396 624 396 609.333V585.333H385.2H374.4L374.933 612.933Z" fill="#00744D"/>
<path d="M717.733 638.667C707.2 645.067 712.267 659.2 725.067 659.2C731.6 659.2 738 652.133 736.8 646.133C735.867 640.933 730.267 636 725.6 636C723.6 636 720 637.2 717.733 638.667Z" fill="#00744D"/>
</svg>
