<?xml version="1.0" encoding="utf-8"?>
<!-- Generator: Adobe Illustrator 27.0.0, SVG Export Plug-In . SVG Version: 6.00 Build 0)  -->
<svg version="1.1" id="Layer_1" xmlns:inkscape="http://www.inkscape.org/namespaces/inkscape"
	 xmlns="http://www.w3.org/2000/svg" xmlns:xlink="http://www.w3.org/1999/xlink" x="0px" y="0px" viewBox="0 0 1236.1 1429.4"
	 style="enable-background:new 0 0 1236.1 1429.4;" xml:space="preserve">
<style type="text/css">
	.st0{fill:#28306A;}
	.st1{fill:#00A650;}
	.st2{fill-rule:evenodd;clip-rule:evenodd;fill:#00A650;}
</style>
<g inkscape:groupmode="layer" inkscape:label="Layer 1">
	<path class="st0" d="M297.6,171.8c-24,0-48,0-72,0v81.5v58.4v316.3c0,22.1,6.6,41.9,17.8,57.6c11,15.3,36.9,31.7,53.7,42.1
		l291.2,188.2c4.2,2.4,8.9,5.5,13.3,7.4c5.1,2.2,10.7,3.4,16.7,3.4c5.8,0,11.3-1.2,16.4-3.3c4.5-1.9,9.1-5,13.4-7.4l291.4-188.3
		c16.8-10.5,42.8-26.8,53.7-42.1c11.3-15.7,17.8-35.5,17.8-57.6V311.6v-58.4v-81.5c-24.4,0-48.9,0-73.3,0c-19.6,0-35.6,16-35.6,35.6
		V243h37.7v68.6v262.7c0,27.5-0.8,48.2-17.8,71.9c-12.4,17.4-45.6,37.2-64.9,49.8l-215.1,139l-4.5,2.9c-5.7,3.1-12.2,4.9-19.1,4.9
		c-6.9,0-13.5-1.8-19.1-4.9l-4.5-2.9l-215.1-139c-19.3-12.6-52.5-32.5-64.9-49.8c-17-23.7-17.8-44.4-17.8-71.9V311.6v-67.8V243h36.4
		v-35.6C333.2,187.8,317.2,171.8,297.6,171.8"/>
	<path class="st0" d="M660.4,339.6h93.4h43.1c0-71.7,0-143.5,0-215.2c0-13.4,11-24.4,24.4-24.4h19.3h27.5c0,80,0,160,0,240v71.2
		v139.3c0,22.1-6.6,41.9-17.8,57.6c-8.4,11.8-30.3,27.3-43,35.5l-10.8,6.7V534.9c0.2-2.3,0.3-4.5,0.3-6.6V411.2l-43.1-0.1v-0.1
		h-21.9L660.4,339.6z M452.5,411.2h-12.8v117.1c0,2.1,0.1,4.3,0.3,6.6v115.4l-10.8-6.7c-12.6-8.2-34.6-23.7-43-35.5
		c-11.3-15.7-17.8-35.5-17.8-57.6c0-150.2,0-300.3,0-450.5h27.6h19.3c13.4,0,24.4,11,24.4,24.4c0,71.7,0,143.5,0,215.2h12.8h52.1
		h6.1l71.6,71.6H452.5z"/>
	<path class="st0" d="M660.4,339.6h93.4h43.1v71.6l-43.1-0.1v-0.1h-21.9L660.4,339.6z"/>
	<path class="st1" d="M514.3,105l104-104l104,104c28.6,28.6,42.9,66.3,42.9,104c0,31.4-10,62.9-29.9,89.1H623.4l-37.5-37.5h94.3
		c12.4-14.8,18.5-33.2,18.5-51.6c0-4.9-0.4-9.8-1.3-14.7H560.5c0.7-2.9,1.6-5.7,2.7-8.4c2.8-6.9,7.1-13.3,12.8-19.1l10-10h93.7
		c-1.4-1.6-2.9-3.2-4.4-4.8l-57-57l-57,57c-15.6,15.6-23.5,36.3-23.5,57c0,20.7,7.8,41.3,23.5,57l57,57l47,47l57,57
		c28.6,28.6,42.9,66.3,42.9,104c0,37.7-14.3,75.4-42.9,104l-104,104l-104-104c-28.6-28.6-42.9-66.3-42.9-104
		c0-31.4,10-62.9,29.9-89.1l-0.3-0.2h111.9l37.5,37.5h-93.8c-12.5,14.9-18.7,33.3-18.7,51.8c0,4.8,0.4,9.7,1.3,14.4h136.6
		c-0.7,2.9-1.6,5.7-2.7,8.4c-2.8,6.9-7.1,13.3-12.8,19.1l-10,10h-93.5c1.5,1.7,3,3.4,4.6,5l57,57l57-57c15.6-15.6,23.5-36.3,23.5-57
		c0-20.7-7.8-41.3-23.5-57l-57-57l-47-47l-57-57c-28.6-28.6-42.9-66.3-42.9-104C471.4,171.3,485.7,133.6,514.3,105"/>
	<path class="st2" d="M1,1360.5h12.5v45c0,5.1,0.6,8.6,1.9,10.5c1.3,1.9,3.5,2.8,6.7,2.8c3.2,0,5.3-0.9,6.6-2.8
		c1.2-1.9,1.9-5.4,1.9-10.6v-44.9h12.3v46.1c0,4.4-0.2,7.7-0.7,9.8c-0.5,2.1-1.3,3.9-2.6,5.5c-1.8,2.3-4.1,4.1-7.1,5.3
		c-1.5,0.6-3.1,1-4.8,1.3c-1.7,0.3-3.6,0.4-5.7,0.4c-7.6,0-13-1.6-16.1-4.9c-3.2-3.3-4.7-9.1-4.7-17.3V1360.5z M54.1,1427.3v-66.8
		h12.8l17.4,46.7l-0.4-46.7h11.8v66.8H83l-17.5-46.8l0.4,46.8H54.1z M107,1427.3v-66.8h12.5v66.8H107z M141.4,1427.3l-15-66.8h13.3
		l9.9,53.3l9-53.3h13.2l-14,66.8H141.4z M179.4,1427.3v-66.8h34.3v11.1h-21.9v15.4h20.4v10.6h-20.4v18.4h22.5v11.3H179.4z
		 M235.5,1388.7h7.2c3.6,0,6.1-0.7,7.5-2.2c1.4-1.5,2.1-4,2.1-7.7c0-3.3-0.8-5.6-2.3-7c-1.5-1.3-4.3-2-8.4-2h-6.1V1388.7z
		 M223.5,1427.3v-66.8h22.3c6.7,0,11.6,1.4,14.5,4.1c1.5,1.3,2.6,3.1,3.3,5.3c0.7,2.2,1.1,4.9,1.1,8c0,4.4-0.8,7.8-2.3,10.2
		c-1.6,2.5-3.9,3.9-7.1,4.4c3,0.8,5.3,2.4,6.9,5c1.6,2.5,2.4,5.9,2.4,10v0.9l0.4,8.9c0,1.2,0.1,2.3,0.2,3.3c0.1,1,0.4,1.9,0.7,2.8
		c0.5,1.5,1.4,2.8,2.4,3.9h-14.8c-0.3-1.1-0.6-2.4-0.8-4c-0.1-0.6-0.1-1.6-0.2-2.9c-0.1-1.3-0.1-2.5-0.1-3.6l-0.2-7v-1.8
		c0-3.9-0.8-6.5-2.5-8c-1.7-1.5-5-2.2-10.1-2.2h-4.3v29.3H223.5z M273.5,1403.8h12.5v4.3c0,4.1,0.5,6.9,1.5,8.4
		c1,1.5,2.8,2.3,5.3,2.3c2.6,0,4.6-0.7,6-2c1.4-1.3,2.1-3.3,2.1-5.9c0-2-0.5-3.7-1.4-5.1c-1-1.4-3-3.3-6.2-5.6l-6.4-4.5
		c-5.4-3.8-8.9-7-10.4-9.4c-1.5-2.5-2.3-5.6-2.3-9.4c0-5.6,1.7-10,5-13.2c3.3-3.2,7.9-4.8,13.7-4.8c6.1,0,10.9,1.7,14.2,5.1
		c3.3,3.4,5,8.2,5,14.6l0,1.5l0,0.9h-11.8v-1.8c0-3.6-0.6-6.2-1.8-7.8c-1.2-1.6-3.1-2.4-5.9-2.4c-2,0-3.6,0.6-4.7,1.7
		c-1.1,1.2-1.7,2.8-1.7,4.9c0,2.7,2.6,5.9,7.7,9.3l0.1,0.1l6.9,4.7c4.9,3.2,8.2,6.3,9.9,9.2c1.7,2.9,2.6,6.6,2.6,11
		c0,6.1-1.7,10.8-5.2,14.1c-3.5,3.3-8.4,4.9-14.9,4.9c-6.6,0-11.6-1.7-14.9-5.2c-3.3-3.5-5-8.8-5-15.8l0.2-3.7V1403.8z
		 M323.4,1427.3v-66.8h12.5v66.8H323.4z M356.7,1427.3v-55.8h-14.3v-11h41.1v11h-14.3v55.8H356.7z M402.7,1427.3V1399l-17.5-38.5
		H399l10.1,25.1l10-25.1h13.4l-17.2,38.5v28.3H402.7z M472.5,1393.9c0,11,0.7,17.9,1.9,20.8c1.3,2.8,3.7,4.3,7.1,4.3
		c3.3,0,5.7-1.4,7-4.2c1.3-2.8,1.9-9.7,1.9-20.9c0-11.1-0.6-18.1-1.9-20.9c-1.3-2.8-3.6-4.2-7.1-4.2c-3.4,0-5.8,1.4-7.1,4.3
		c-0.6,1.4-1.1,3.9-1.4,7.3C472.7,1383.7,472.5,1388.2,472.5,1393.9z M459.8,1393.9c0-7.2,0.3-12.9,1-17.1c0.7-4.1,1.7-7.3,3.1-9.5
		c1.9-3,4.2-5.2,6.9-6.5c2.7-1.3,6.2-2,10.6-2c4.3,0,7.9,0.6,10.6,1.9c2.7,1.3,5.1,3.5,7,6.5c1.4,2.1,2.4,5.3,3.1,9.6
		c0.3,2,0.6,4.5,0.7,7.3c0.2,2.9,0.3,6.1,0.3,9.6c0,7.2-0.3,12.9-1,17.1c-0.7,4.2-1.7,7.3-3.1,9.5c-2,3.1-4.3,5.2-7,6.5
		c-2.7,1.3-6.2,1.9-10.6,1.9c-4.3,0-7.9-0.7-10.6-1.9c-2.7-1.3-5-3.5-7-6.5c-1.4-2.1-2.4-5.3-3.1-9.5c-0.3-2.1-0.6-4.5-0.7-7.4
		C459.9,1400.7,459.8,1397.4,459.8,1393.9z M513.3,1427.3v-66.8h34.9v10.9h-22.5v15.8H547v10.7h-21.2v29.4H513.3z M578.9,1427.3
		v-66.8h12.4v26.2h17v-26.2h12.4v66.8h-12.4V1397h-17v30.3H578.9z M632.1,1427.3v-66.8h34.3v11.1h-21.9v15.4h20.4v10.6h-20.4v18.4
		h22.5v11.3H632.1z M689.1,1400.5h10.6l-5.3-28L689.1,1400.5z M671.2,1427.3l15-66.8h16.7l15.2,66.8h-13.4l-3.3-16.8h-14.3
		l-3.2,16.8H671.2z M724.7,1427.3v-66.8h12.5v55.5h22.5v11.4H724.7z M777.5,1427.3v-55.8h-14.3v-11h41.1v11H790v55.8H777.5z
		 M810.9,1427.3v-66.8h12.4v26.2h17v-26.2h12.4v66.8h-12.4V1397h-17v30.3H810.9z M885,1403.8h12.5v4.3c0,4.1,0.5,6.9,1.5,8.4
		c1,1.5,2.8,2.3,5.3,2.3c2.6,0,4.6-0.7,6-2c1.4-1.3,2.1-3.3,2.1-5.9c0-2-0.5-3.7-1.4-5.1c-1-1.4-3-3.3-6.2-5.6l-6.4-4.5
		c-5.4-3.8-8.9-7-10.4-9.4c-1.5-2.5-2.3-5.6-2.3-9.4c0-5.6,1.7-10,5-13.2c3.3-3.2,7.9-4.8,13.7-4.8c6.1,0,10.9,1.7,14.2,5.1
		c3.3,3.4,5,8.2,5,14.6l0,1.5l0,0.9h-11.8v-1.8c0-3.6-0.6-6.2-1.8-7.8c-1.2-1.6-3.1-2.4-5.8-2.4c-2,0-3.6,0.6-4.7,1.7
		c-1.1,1.2-1.7,2.8-1.7,4.9c0,2.7,2.6,5.9,7.7,9.3l0.1,0.1l6.9,4.7c4.9,3.2,8.2,6.3,9.9,9.2c1.7,2.9,2.6,6.6,2.6,11
		c0,6.1-1.7,10.8-5.2,14.1c-3.5,3.3-8.4,4.9-14.9,4.9c-6.6,0-11.6-1.7-14.9-5.2c-3.3-3.5-5-8.8-5-15.8l0.2-3.7V1403.8z
		 M961.5,1403.5h12.1l0,1.3l0,1.3c0,7.8-1.6,13.5-4.9,17.2c-3.2,3.7-8.2,5.6-15,5.6c-3.2,0-6-0.4-8.2-1.2c-2.2-0.8-4.2-2.1-5.9-3.9
		c-2.2-2.3-3.8-5.5-4.8-9.6c-0.9-4.1-1.4-11.2-1.4-21.2c0-7,0.3-12.5,0.8-16.5c0.5-4,1.4-7,2.6-9c1.8-3,4-5.3,6.7-6.6
		c2.7-1.4,6.1-2.1,10.2-2.1c6.8,0,11.7,1.8,14.8,5.3c3.1,3.5,4.7,9.2,4.7,17h-12.1v-1.6c0-3.6-0.6-6.3-1.7-8.1
		c-1.2-1.8-2.9-2.6-5.4-2.6c-2.9,0-5,1.2-6.1,3.7c-1.1,2.5-1.7,9.3-1.7,20.4c0,12,0.5,19.3,1.6,21.9c1,2.6,3.1,4,6.1,4
		c2.7,0,4.7-1,5.8-3.1c1.1-2,1.7-5.8,1.7-11.3V1403.5z M983.6,1427.3v-66.8h12.5v66.8H983.6z M1007.4,1427.3v-66.8h34.3v11.1h-21.9
		v15.4h20.4v10.6h-20.4v18.4h22.5v11.3H1007.4z M1051.4,1427.3v-66.8h12.8l17.4,46.7l-0.4-46.7h11.8v66.8h-12.7l-17.5-46.8l0.4,46.8
		H1051.4z M1131,1403.5h12.1l0,1.3l0,1.3c0,7.8-1.6,13.5-4.9,17.2c-3.2,3.7-8.2,5.6-15,5.6c-3.2,0-6-0.4-8.2-1.2
		c-2.2-0.8-4.2-2.1-5.9-3.9c-2.2-2.3-3.8-5.5-4.8-9.6c-0.9-4.1-1.4-11.2-1.4-21.2c0-7,0.3-12.5,0.8-16.5c0.5-4,1.4-7,2.6-9
		c1.8-3,4-5.3,6.7-6.6c2.7-1.4,6.1-2.1,10.2-2.1c6.8,0,11.7,1.8,14.8,5.3c3.1,3.5,4.7,9.2,4.7,17h-12.1v-1.6c0-3.6-0.6-6.3-1.7-8.1
		c-1.2-1.8-2.9-2.6-5.4-2.6c-2.9,0-5,1.2-6.1,3.7c-1.1,2.5-1.7,9.3-1.7,20.4c0,12,0.5,19.3,1.6,21.9c1,2.6,3.1,4,6.1,4
		c2.7,0,4.7-1,5.8-3.1c1.1-2,1.7-5.8,1.7-11.3V1403.5z M1153.1,1427.3v-66.8h34.3v11.1h-21.9v15.4h20.4v10.6h-20.4v18.4h22.5v11.3
		H1153.1z M1195.8,1403.8h12.5v4.3c0,4.1,0.5,6.9,1.5,8.4c1,1.5,2.8,2.3,5.3,2.3c2.6,0,4.6-0.7,6-2c1.4-1.3,2.1-3.3,2.1-5.9
		c0-2-0.5-3.7-1.4-5.1c-1-1.4-3-3.3-6.2-5.6l-6.4-4.5c-5.4-3.8-8.9-7-10.4-9.4c-1.5-2.5-2.3-5.6-2.3-9.4c0-5.6,1.7-10,5-13.2
		c3.3-3.2,7.9-4.8,13.7-4.8c6.1,0,10.9,1.7,14.2,5.1c3.3,3.4,5,8.2,5,14.6l0,1.5l0,0.9h-11.8v-1.8c0-3.6-0.6-6.2-1.8-7.8
		c-1.2-1.6-3.1-2.4-5.8-2.4c-2,0-3.6,0.6-4.7,1.7c-1.1,1.2-1.7,2.8-1.7,4.9c0,2.7,2.6,5.9,7.7,9.3l0.1,0.1l6.9,4.7
		c4.9,3.2,8.2,6.3,9.9,9.2c1.7,2.9,2.6,6.6,2.6,11c0,6.1-1.7,10.8-5.2,14.1c-3.5,3.3-8.4,4.9-14.9,4.9c-6.6,0-11.6-1.7-14.9-5.2
		c-3.3-3.5-5-8.8-5-15.8l0.2-3.7V1403.8z"/>
	<path class="st0" d="M136.9,1137v-84.9h-19.7v-20.5h65.1v20.5h-20.7v84.9H136.9z M216.7,1075.5c0.4,0,1,0,1.6,0.1
		c0.7,0,1.1,0.1,1.5,0.1c5.1,0,8.7-1,10.8-3.1c2.1-2.1,3.2-5.5,3.2-10.4c0-4.5-1.1-7.7-3.2-9.6c-2.1-1.9-5.7-2.8-10.8-2.8
		c-0.3,0-0.8,0-1.5,0.1c-0.7,0-1.2,0.1-1.6,0.1V1075.5z M192.3,1137v-105.3h27.7c9.1,0,15.7,0.4,19.8,1.3c4.1,0.9,7.4,2.3,10,4.3
		c3,2.5,5.3,5.5,6.7,9.1c1.5,3.6,2.2,7.9,2.2,12.9c0,6.1-1.1,11.1-3.2,15.2c-2.1,4.1-5.4,7.5-9.9,10.1c7.6,3.4,11.6,11.4,12,24
		c0,0.2,0,0.3,0,0.4c0,1.3,0.1,3.2,0.1,5.7c0.2,11.9,2.1,19.3,5.9,22.3H235c-0.6-2.2-1.1-4.5-1.4-6.9c-0.3-2.4-0.4-5-0.4-7.7
		c0-1.7,0-3.7,0.1-6.1c0.1-2.4,0.1-4,0.1-4.7c0-6.4-0.8-10.8-2.5-13.2c-1.7-2.4-4.7-3.6-9.1-3.6h-5.1v42.1H192.3z M274.4,1031.7
		h24.9v66c0,10,0.6,16.2,1.9,18.5c1.3,2.4,3.5,3.6,6.7,3.6c3.2,0,5.5-1.2,6.7-3.7c1.2-2.5,1.8-8.6,1.8-18.4v-66h24.4v67.2
		c0,7.6-0.3,13.3-1,17.1c-0.7,3.8-1.7,7-3.2,9.8c-2.5,4.7-6.1,8.2-10.9,10.4c-4.8,2.2-10.9,3.3-18.5,3.3c-7,0-12.7-1-17.2-3.1
		c-4.4-2.1-7.9-5.4-10.5-9.9c-1.9-3.2-3.2-7.4-3.9-12.4c-0.8-5.1-1.1-13.6-1.1-25.7V1031.7z M337.8,1029.2v-14.1H352v11.2
		c0,5.4-1.1,9.3-3.3,11.7c-2.2,2.5-5.8,3.8-10.8,4.1v-5c2.5-0.2,4.4-1,5.7-2.4c1.3-1.4,1.9-3.2,1.9-5.6H337.8z M401.3,1093.9v-19
		c0-11.7-0.7-18.9-2.2-21.6c-1.5-2.8-4.2-4.2-8.1-4.2c-3.8,0-6.4,1.4-7.9,4.2c-1.4,2.8-2.2,10-2.2,21.6v19c0,11.4,0.7,18.6,2.2,21.5
		c1.5,2.9,4.1,4.3,8,4.3c3.8,0,6.5-1.4,7.9-4.2C400.5,1112.6,401.3,1105.4,401.3,1093.9z M402.2,1022.8h-9.9l-23.9-19.5h20.2
		L402.2,1022.8z M419.1,1041.1c0.5,0.6,0.9,1.2,1.3,1.8c2.2,3.3,3.7,7.9,4.6,13.8c0.9,5.8,1.4,15.1,1.4,27.7
		c0,12.6-0.5,21.8-1.4,27.7c-0.9,5.9-2.5,10.5-4.6,13.8c-3,4.6-6.9,8-11.7,10.3c-4.9,2.3-10.7,3.4-17.6,3.4
		c-6.8,0-12.7-1.1-17.6-3.4c-4.9-2.3-8.8-5.7-11.8-10.3c-2.1-3.3-3.6-7.8-4.5-13.7c-0.9-5.8-1.4-15.1-1.4-27.8
		c0-12.7,0.5-21.9,1.4-27.8c0.9-5.8,2.4-10.4,4.5-13.7c3-4.7,7-8.1,11.8-10.4c4.9-2.3,10.7-3.4,17.6-3.4c6.9,0,12.7,1.1,17.6,3.3
		c2.4,1.1,4.5,2.6,6.5,4.3c1.5-0.4,2.7-1.1,3.6-2.1c1.3-1.3,1.9-3.2,1.9-5.5h-7.7v-14.1h14.1v11.2c0,5.4-1.1,9.3-3.3,11.7
		C422.8,1039.3,421.2,1040.4,419.1,1041.1z M441.5,1137v-105.3h25.7l20.5,65c-0.8-10.9-1.4-20.4-1.8-28.3
		c-0.4-7.9-0.6-14.6-0.6-20.1v-16.6h22V1137h-25.7l-20.6-67c0.9,8.7,1.6,17.2,2.1,25.3c0.5,8.2,0.7,16.1,0.7,23.8v17.8H441.5z
		 M589.1,1079.3v57.7h-17l-1.1-6.6c-2.5,2.8-5.2,4.9-8.2,6.3c-3,1.4-6.4,2.1-10.2,2.1c-4.3,0-8.2-0.8-11.9-2.4
		c-3.6-1.6-6.8-3.9-9.5-6.9c-3.3-3.7-5.7-8.7-7.1-14.9c-1.4-6.3-2.1-16.8-2.1-31.7c0-10.6,0.5-19.1,1.4-25.5
		c1-6.4,2.4-11.2,4.4-14.4c2.9-4.6,6.8-8.1,11.6-10.4c4.8-2.3,10.5-3.5,17.1-3.5c10.3,0,18.1,2.8,23.4,8.5c5.2,5.6,7.9,14,7.9,25.2
		c0,0.4,0,1.1-0.1,1.9c0,0.8-0.1,1.5-0.1,2h-23.4v-1.3c0-6.1-0.7-10.4-2-13c-1.3-2.6-3.4-3.9-6.3-3.9c-3.5,0-5.8,1.6-7.1,4.8
		c-1.3,3.2-1.9,10.6-1.9,22.4v10.4v7.3c0,11.7,0.6,19.1,1.8,22.2c1.2,3.1,3.5,4.6,6.8,4.6c3.3,0,5.7-1.3,7.2-4
		c1.5-2.7,2.3-7.1,2.3-13.1c0-1.4,0-2.4,0-3.2s-0.1-1.4-0.1-2.1h-9.6v-18.4H589.1z M671.9,1031.7c9.9,0,17.3,0.9,22.1,2.6
		c4.8,1.7,8.6,4.6,11.4,8.8c2.2,3.2,3.8,7.4,4.7,12.5c0.9,5.1,1.4,14.7,1.4,28.8c0,14.1-0.4,23.6-1.4,28.7
		c-0.9,5.1-2.5,9.3-4.7,12.6c-2.8,4.1-6.6,7.1-11.4,8.8c-4.8,1.7-12.1,2.6-22.1,2.6h-28.5v-46.1h-9.4v-17.8h9.4v-41.5H671.9z
		 M667.6,1090.9l0.1,26.9c1.4,0.1,2.4,0.2,3,0.3c0.7,0,1.2,0.1,1.7,0.1c3.1,0,5.7-0.4,7.7-1.2c2.1-0.8,3.7-2,4.9-3.6
		c1-1.2,1.6-3.5,2-6.9c0.4-3.4,0.5-10.7,0.5-22v-7.7c0-7.5-0.2-12.7-0.5-15.4c-0.3-2.7-1-4.6-1.9-5.8c-1.1-1.6-2.7-2.7-4.9-3.5
		c-2.2-0.7-4.8-1.1-8-1.1c-0.9,0-2.3,0.1-4.2,0.2c-0.2,0-0.4,0-0.5,0.1v21.8h11.2v17.8H667.6z M749.4,1097.8h14.1l-7.1-46
		L749.4,1097.8z M719,1137l23-105.3h29.3L794,1137h-24.6l-3.1-20.2h-19.4l-3.1,20.2H719z M748.1,1164.1v-17.9h16.7v17.9H748.1z
		 M803.6,1137v-105.3h24.6V1137H803.6z M882.9,1137v-105.3h24.6v39.8h19.8v-39.8h24.1V1137h-24.1v-43.7h-19.8v43.7H882.9z
		 M1011.8,1093.9v-19c0-11.7-0.7-18.9-2.2-21.6c-1.5-2.8-4.2-4.2-8.1-4.2c-3.8,0-6.4,1.4-7.9,4.2c-1.4,2.8-2.2,10-2.2,21.6v19
		c0,11.4,0.7,18.6,2.2,21.5c1.5,2.9,4.1,4.3,8,4.3c3.8,0,6.5-1.4,7.9-4.2C1011,1112.6,1011.8,1105.4,1011.8,1093.9z M966.3,1084.3
		c0-12.7,0.5-21.9,1.4-27.8c0.9-5.8,2.4-10.4,4.5-13.7c3-4.7,7-8.1,11.8-10.4s10.7-3.4,17.6-3.4c6.9,0,12.7,1.1,17.6,3.4
		s8.7,5.7,11.7,10.4c2.2,3.3,3.7,7.9,4.6,13.8c0.9,5.8,1.4,15.1,1.4,27.7c0,12.6-0.5,21.8-1.4,27.7c-0.9,5.9-2.5,10.5-4.6,13.8
		c-3,4.6-6.9,8-11.7,10.3c-4.9,2.3-10.7,3.4-17.6,3.4c-6.8,0-12.7-1.1-17.6-3.4c-4.9-2.3-8.8-5.7-11.8-10.3
		c-2.1-3.3-3.6-7.8-4.5-13.7C966.8,1106.3,966.3,1097,966.3,1084.3z M993.3,1164.1v-17.9h16.7v17.9H993.3z M1095.1,1096.3h24.2
		c0,0.6,0.1,1.3,0.1,2.1c0,0.7,0,1.8,0,3.3c0,12.9-2.8,22.4-8.5,28.6c-5.6,6.2-14.3,9.3-25.9,9.3c-6.8,0-12.7-1.1-17.6-3.4
		c-4.9-2.3-8.8-5.7-11.8-10.3c-2.1-3.3-3.6-7.8-4.5-13.7c-0.9-5.8-1.4-15.1-1.4-27.8c0-12.7,0.5-21.9,1.4-27.8
		c0.9-5.8,2.4-10.4,4.5-13.7c3-4.6,6.9-8,11.7-10.3c4.8-2.3,10.6-3.5,17.3-3.5c11.5,0,20.2,3.2,25.9,9.6c5.8,6.4,8.7,16,8.7,28.7v1
		l-23.9-0.1c-0.1-7.1-0.9-12.2-2.5-15.1c-1.5-2.9-4.2-4.3-7.8-4.3c-4,0-6.7,1.8-8.1,5.3c-1.5,3.5-2.2,12.9-2.2,28v2
		c0,16.3,0.7,26.3,2.2,29.9c1.4,3.7,4.2,5.5,8.1,5.5c3.7,0,6.3-1.3,7.8-4c1.5-2.7,2.2-7.6,2.2-14.9V1096.3z"/>
	<path class="st0" d="M3.5,1304.6v-105.3h24.6v43.7l18.4-43.7h25.2l-22.8,46.1l23.4,59.2H46.4l-12.9-38.1l-5.3,10.1v28H3.5z
		 M79.2,1304.6v-105.3h24.6v39.8h19.8v-39.8h24.1v105.3h-24.1v-43.7h-19.8v43.7H79.2z M208,1261.4v-19c0-11.7-0.7-18.9-2.2-21.6
		c-1.5-2.8-4.2-4.2-8.1-4.2c-3.8,0-6.4,1.4-7.9,4.2c-1.4,2.8-2.2,10-2.2,21.6v19c0,11.4,0.7,18.6,2.2,21.5c1.5,2.9,4.1,4.3,8,4.3
		c3.8,0,6.5-1.4,7.9-4.2C207.3,1280.1,208,1272.9,208,1261.4z M162.6,1251.9c0-12.7,0.5-21.9,1.4-27.8c0.9-5.8,2.4-10.4,4.5-13.7
		c3-4.7,7-8.1,11.8-10.4c4.9-2.3,10.7-3.4,17.6-3.4c6.9,0,12.7,1.1,17.6,3.4c4.8,2.3,8.7,5.7,11.7,10.4c2.2,3.3,3.7,7.9,4.6,13.8
		c0.9,5.8,1.4,15.1,1.4,27.7c0,12.6-0.5,21.8-1.4,27.7c-0.9,5.9-2.5,10.5-4.6,13.8c-3,4.6-6.9,8-11.7,10.3
		c-4.9,2.3-10.7,3.4-17.6,3.4c-6.8,0-12.7-1.1-17.6-3.4c-4.9-2.3-8.8-5.7-11.8-10.3c-2.1-3.3-3.6-7.8-4.5-13.7
		C163.1,1273.9,162.6,1264.6,162.6,1251.9z M271.1,1265.4h14.1l-7.1-46L271.1,1265.4z M240.7,1304.6l23-105.3h29.3l22.7,105.3H291
		l-3.1-20.2h-19.4l-3.1,20.2H240.7z M362.8,1304.6v-105.3h24.6v39.8h19.8v-39.8h24.1v105.3h-24.1v-43.7h-19.8v43.7H362.8z
		 M491.7,1261.4v-19c0-11.7-0.7-18.9-2.2-21.6c-1.5-2.8-4.2-4.2-8.1-4.2c-3.8,0-6.4,1.4-7.9,4.2c-1.4,2.8-2.2,10-2.2,21.6v19
		c0,11.4,0.7,18.6,2.2,21.5c1.5,2.9,4.1,4.3,8,4.3c3.8,0,6.5-1.4,7.9-4.2C491,1280.1,491.7,1272.9,491.7,1261.4z M446.3,1251.9
		c0-12.7,0.5-21.9,1.4-27.8c0.9-5.8,2.4-10.4,4.5-13.7c3-4.7,7-8.1,11.8-10.4c4.9-2.3,10.7-3.4,17.6-3.4c6.9,0,12.7,1.1,17.6,3.4
		c4.8,2.3,8.7,5.7,11.7,10.4c2.2,3.3,3.7,7.9,4.6,13.8c0.9,5.8,1.4,15.1,1.4,27.7c0,12.6-0.5,21.8-1.4,27.7
		c-0.9,5.9-2.5,10.5-4.6,13.8c-3,4.6-6.9,8-11.7,10.3c-4.9,2.3-10.7,3.4-17.6,3.4c-6.8,0-12.7-1.1-17.6-3.4
		c-4.9-2.3-8.8-5.7-11.8-10.3c-2.1-3.3-3.6-7.8-4.5-13.7C446.7,1273.9,446.3,1264.6,446.3,1251.9z M473.2,1331.7v-17.9h16.7v17.9
		H473.2z M575.1,1263.8h24.2c0,0.6,0.1,1.3,0.1,2.1c0,0.7,0,1.8,0,3.3c0,12.9-2.8,22.4-8.5,28.6c-5.6,6.2-14.3,9.3-25.9,9.3
		c-6.8,0-12.7-1.1-17.6-3.4c-4.9-2.3-8.8-5.7-11.8-10.3c-2.1-3.3-3.6-7.8-4.5-13.7c-0.9-5.8-1.4-15.1-1.4-27.8s0.5-21.9,1.4-27.8
		c0.9-5.8,2.4-10.4,4.5-13.7c3-4.6,6.9-8,11.7-10.3c4.8-2.3,10.6-3.5,17.3-3.5c11.5,0,20.2,3.2,25.9,9.6c5.8,6.4,8.7,16,8.7,28.7v1
		l-23.9-0.1c-0.1-7.1-0.9-12.2-2.5-15.1c-1.5-2.9-4.2-4.3-7.8-4.3c-4,0-6.7,1.8-8.1,5.3c-1.5,3.5-2.2,12.9-2.2,28v2
		c0,16.3,0.7,26.3,2.2,29.9c1.4,3.7,4.2,5.5,8.1,5.5c3.7,0,6.3-1.3,7.8-4c1.5-2.7,2.2-7.6,2.2-14.9V1263.8z M649.8,1268.9h22.6v3.1
		c0,5.8,0.7,9.9,2.1,12.2c1.4,2.4,3.7,3.5,6.9,3.5c2.6,0,4.6-0.9,6.2-2.7c1.5-1.8,2.3-4.3,2.3-7.4c0-5.1-3.7-10-11-14.7
		c-1.2-0.8-2.1-1.4-2.7-1.8c-0.2-0.1-0.6-0.4-1.2-0.8c-9.9-6.7-16.1-11.7-18.5-15c-1.7-2.6-3.1-5.4-4-8.6c-0.9-3.2-1.4-6.7-1.4-10.5
		c0-9.2,2.7-16.5,8-21.7c5.3-5.3,12.7-7.9,22-7.9c10.2,0,17.9,2.6,23.3,7.7c5.3,5.2,8,12.6,8,22.4c0,0.4,0,1-0.1,1.7
		c0,0.7-0.1,1.3-0.1,1.7h-22.1v-1.3c0-4.6-0.7-8.1-2.1-10.5c-1.4-2.4-3.5-3.5-6.3-3.5c-2.3,0-4.2,0.8-5.6,2.5
		c-1.4,1.7-2.1,3.9-2.1,6.6c0,4.5,4,9.2,12,14.2c1.5,1,2.6,1.7,3.4,2.2c0.6,0.4,1.5,0.9,2.7,1.7c8.6,5.5,14.1,10.1,16.6,13.8
		c1.5,2.4,2.7,5.2,3.5,8.2c0.8,3.1,1.2,6.4,1.2,10c0,10.5-2.7,18.7-8.2,24.4c-5.5,5.7-13.3,8.5-23.5,8.5c-10.7,0-18.7-2.7-24-8.2
		c-5.3-5.4-8-13.5-8-24.3c0-0.7,0-1.4,0-2.2C649.5,1271.7,649.6,1270.5,649.8,1268.9z M748.9,1190.4l13.6-19.5h20.2l-24,19.5H748.9z
		 M792.9,1209.4v57.1c0,7.6-0.3,13.3-1,17.1c-0.7,3.8-1.7,7-3.2,9.8c-2.5,4.7-6.1,8.2-10.9,10.4c-4.8,2.2-10.9,3.3-18.5,3.3
		c-7,0-12.7-1-17.2-3.1c-4.4-2.1-7.9-5.4-10.5-9.9c-1.9-3.2-3.2-7.4-3.9-12.4c-0.8-5.1-1.1-13.6-1.1-25.7v-56.7h24.9v66
		c0,10,0.6,16.2,1.9,18.5c1.3,2.4,3.5,3.6,6.7,3.6c3.2,0,5.5-1.2,6.7-3.7c1.2-2.5,1.8-8.6,1.8-18.4v-66h24.4v4.9
		c1.1-0.4,2-1,2.7-1.8c1.3-1.3,1.9-3.2,1.9-5.5h-7.7v-14.1h14.2v11.2c0,5.4-1.1,9.3-3.3,11.7
		C799.1,1207.5,796.4,1208.8,792.9,1209.4z M853.2,1263.8h24.2c0,0.6,0.1,1.3,0.1,2.1c0,0.7,0,1.8,0,3.3c0,12.9-2.8,22.4-8.5,28.6
		c-5.6,6.2-14.3,9.3-25.9,9.3c-6.8,0-12.7-1.1-17.6-3.4c-4.9-2.3-8.8-5.7-11.8-10.3c-2.1-3.3-3.6-7.8-4.5-13.7s-1.4-15.1-1.4-27.8
		s0.5-21.9,1.4-27.8c0.9-5.8,2.4-10.4,4.5-13.7c3-4.6,6.9-8,11.7-10.3c4.8-2.3,10.6-3.5,17.3-3.5c11.5,0,20.2,3.2,25.9,9.6
		c5.8,6.4,8.7,16,8.7,28.7v1l-23.9-0.1c-0.1-7.1-0.9-12.2-2.5-15.1c-1.5-2.9-4.2-4.3-7.8-4.3c-4,0-6.7,1.8-8.1,5.3
		c-1.5,3.5-2.2,12.9-2.2,28v2c0,16.3,0.7,26.3,2.2,29.9c1.4,3.7,4.2,5.5,8.1,5.5c3.7,0,6.3-1.3,7.8-4c1.5-2.7,2.2-7.6,2.2-14.9
		V1263.8z M931.1,1304.6v-105.3h24.6v43.7l18.4-43.7h25.2l-22.8,46.1l23.4,59.2H974l-12.9-38.1l-5.3,10.1v28H931.1z M1006.7,1304.6
		v-105.3h24.6v39.8h19.8v-39.8h24.1v105.3h-24.1v-43.7h-19.8v43.7H1006.7z M1135.6,1261.4v-19c0-11.7-0.7-18.9-2.2-21.6
		c-1.5-2.8-4.2-4.2-8.1-4.2c-3.8,0-6.4,1.4-7.9,4.2c-1.4,2.8-2.2,10-2.2,21.6v19c0,11.4,0.7,18.6,2.2,21.5c1.5,2.9,4.1,4.3,8,4.3
		c3.8,0,6.5-1.4,7.9-4.2C1134.9,1280.1,1135.6,1272.9,1135.6,1261.4z M1090.2,1251.9c0-12.7,0.5-21.9,1.4-27.8
		c0.9-5.8,2.4-10.4,4.5-13.7c3-4.7,7-8.1,11.8-10.4c4.9-2.3,10.7-3.4,17.6-3.4c6.9,0,12.7,1.1,17.6,3.4c4.8,2.3,8.7,5.7,11.7,10.4
		c2.2,3.3,3.7,7.9,4.6,13.8c0.9,5.8,1.4,15.1,1.4,27.7c0,12.6-0.5,21.8-1.4,27.7c-0.9,5.9-2.5,10.5-4.6,13.8c-3,4.6-6.9,8-11.7,10.3
		c-4.9,2.3-10.7,3.4-17.6,3.4c-6.8,0-12.7-1.1-17.6-3.4c-4.9-2.3-8.8-5.7-11.8-10.3c-2.1-3.3-3.6-7.8-4.5-13.7
		C1090.6,1273.9,1090.2,1264.6,1090.2,1251.9z M1121.7,1175.8h-8.8v-0.3c0-4.2,1.1-7.4,3.4-9.6c2.2-2.2,5.5-3.3,9.7-3.3
		c3.7,0,6.6,0.9,8.8,2.8c2.1,1.9,3.2,4.4,3.2,7.5c0,1.7-0.4,3.4-1.1,5.1c-0.7,1.7-2.1,3.8-4.2,6.4c-0.1,0.1-0.2,0.2-0.4,0.4
		c-2.1,2.8-3.2,5.1-3.2,6.9v0.5h-8.5c0-0.3-0.1-0.6-0.1-1c0-0.4,0-0.7,0-1c0-1.5,0.3-2.9,0.9-4.3c0.6-1.4,1.8-3.3,3.8-5.6l0.1-0.2
		c2-2.5,3-4.6,3-6.3c0-1.2-0.3-2.2-0.8-2.9c-0.6-0.7-1.3-1-2.3-1c-1.1,0-1.9,0.4-2.5,1.4c-0.6,0.9-0.9,2.1-0.9,3.6
		c0,0.1,0,0.3,0,0.4C1121.7,1175.5,1121.7,1175.7,1121.7,1175.8z M1175.8,1304.6v-105.3h57.3v20.5h-32.8v19.4h30.3v21.2h-30.3v23
		h32.8v21.4H1175.8z"/>
</g>
</svg>
